<?xml version="1.0" encoding="UTF-8"?>
<svg height="128px" viewBox="0 0 128 128" width="128px" xmlns="http://www.w3.org/2000/svg" xmlns:xlink="http://www.w3.org/1999/xlink">
    <filter id="a" height="100%" width="100%" x="0%" y="0%">
        <feColorMatrix color-interpolation-filters="sRGB" values="0 0 0 0 1 0 0 0 0 1 0 0 0 0 1 0 0 0 1 0"/>
    </filter>
    <linearGradient id="b" gradientTransform="matrix(0.856732 0 0 0.861475 9.040388 29.199356)" gradientUnits="userSpaceOnUse" x1="64.013" x2="64.013" y1="50.252998" y2="96.564102">
        <stop offset="0" stop-color="#3584e4"/>
        <stop offset="0.5279" stop-color="#62a0ea"/>
        <stop offset="1" stop-color="#99c1f1"/>
    </linearGradient>
    <linearGradient id="c" gradientUnits="userSpaceOnUse">
        <stop offset="0" stop-color="#1a5fb4"/>
        <stop offset="0.5279" stop-color="#1c71d8"/>
        <stop offset="1" stop-color="#3584e4"/>
    </linearGradient>
    <linearGradient id="d" gradientTransform="matrix(0.856732 0 0 0.861475 9.040388 29.199356)" x1="20.062401" x2="14.3927" xlink:href="#c" y1="68.441704" y2="68.441704"/>
    <linearGradient id="e" gradientTransform="matrix(0.856732 0 0 0.861475 9.040388 29.199356)" x1="106.523003" x2="117.193001" xlink:href="#c" y1="68.441704" y2="68.441704"/>
    <linearGradient id="f" gradientUnits="userSpaceOnUse">
        <stop offset="0" stop-color="#fdfffe"/>
        <stop offset="1" stop-color="#dde5f0"/>
    </linearGradient>
    <radialGradient id="g" cx="0" cy="0" gradientTransform="matrix(0 3.372949 -1.677738 0 63.920926 75.609149)" r="1" xlink:href="#f"/>
    <radialGradient id="h" cx="0" cy="0" gradientTransform="matrix(10.811786 0 0 10.835455 63.875263 89.613019)" r="1" xlink:href="#f"/>
    <radialGradient id="i" cx="0" cy="0" gradientTransform="matrix(5.65916 0 0 5.671561 63.944058 86.834074)" gradientUnits="userSpaceOnUse" r="1">
        <stop offset="0" stop-color="#3a507f"/>
        <stop offset="1" stop-color="#283e68"/>
    </radialGradient>
    <linearGradient id="j" gradientTransform="matrix(0.856732 0 0 0.861475 9.040388 29.199356)" gradientUnits="userSpaceOnUse" x1="7.2758" x2="120.753998" y1="17.09" y2="17.09">
        <stop offset="0" stop-color="#62a0ea"/>
        <stop offset="0.5067" stop-color="#99c1f1"/>
        <stop offset="1" stop-color="#62a0ea"/>
    </linearGradient>
    <mask id="k">
        <g filter="url(#a)">
            <rect fill-opacity="0.12" height="153.6" width="153.6" x="-12.8" y="-12.8"/>
        </g>
    </mask>
    <clipPath id="l">
        <rect height="152" width="192"/>
    </clipPath>
    <linearGradient id="m" gradientTransform="matrix(0.856732 0 0 0.861475 9.040388 29.199356)" gradientUnits="userSpaceOnUse" x1="0.004388" x2="128.005005" y1="24.784401" y2="24.784401">
        <stop offset="0" stop-color="#3584e4"/>
        <stop offset="0.5067" stop-color="#62a0ea"/>
        <stop offset="1" stop-color="#3584e4"/>
    </linearGradient>
    <path d="m 109.449219 67.167969 h -91.125 v 48.179687 h 91.125 z m 0 0" fill="url(#b)"/>
    <path d="m 109.429688 114.496094 h -91.105469 v 0.851562 h 91.105469 z m 0 0" fill="#6291d9"/>
    <path d="m 27.460938 61.832031 h -9.136719 v 52.664063 l 9.136719 -42 z m 0 0" fill="url(#d)"/>
    <path d="m 109.4375 61.832031 h -9.132812 v 10.664063 l 9.132812 42 z m 0 0" fill="url(#e)"/>
    <path d="m 27.457031 61.832031 v 10.664063 h 72.847657 v -10.664063 z m 0 0" fill="#1a5fb4"/>
    <g fill-opacity="0.1">
        <path d="m 54.503906 85.488281 l -25.707031 2.28125 c -2.050781 0.1875 -2.148437 3.152344 -0.105469 3.46875 l 26.214844 3.992188 z m 0 0"/>
        <path d="m 54.503906 85.488281 l -1.707031 0.15625 c -0.46875 1.421875 -0.683594 3.027344 -0.605469 4.835938 c 0.078125 1.589843 0.410156 3.097656 0.957032 4.488281 l 1.765624 0.261719 z m 0 0"/>
        <path d="m 27.273438 90.003906 c 0.167968 0.597656 0.625 1.117188 1.417968 1.234375 l 26.214844 3.996094 l -0.085938 -2.136719 z m 0 0"/>
        <path d="m 43.199219 91.980469 c -1.132813 -0.15625 -2.296875 -0.085938 -3.429688 -0.207031 c -0.164062 -0.019532 -0.320312 -0.078126 -0.457031 -0.15625 c -1.164062 0.902343 -1.917969 2.3125 -1.917969 3.910156 c 0 2.730468 2.210938 4.945312 4.9375 4.945312 c 2.722657 0 4.933594 -2.214844 4.933594 -4.945312 c 0 -1.136719 -0.390625 -2.183594 -1.027344 -3.019532 c -1.035156 -0.066406 -2.011719 -0.390624 -3.039062 -0.527343 z m 0 0"/>
        <path d="m 42.332031 100.472656 c 2.617188 0 4.738281 -2.128906 4.738281 -4.75 c 0 -2.625 -2.121093 -4.75 -4.738281 -4.75 c -2.617187 0 -4.742187 2.125 -4.742187 4.75 c 0 2.621094 2.125 4.75 4.742187 4.75 z m 0 0"/>
        <path d="m 42.332031 98.445312 c 1.5 0 2.714844 -1.21875 2.714844 -2.722656 s -1.214844 -2.722656 -2.714844 -2.722656 s -2.71875 1.21875 -2.71875 2.722656 s 1.21875 2.722656 2.71875 2.722656 z m 0 0"/>
        <path d="m 73.246094 85.488281 l 25.707031 2.28125 c 2.054687 0.1875 2.152344 3.152344 0.109375 3.46875 l -26.21875 3.992188 z m 0 0"/>
        <path d="m 73.246094 85.488281 l 1.710937 0.15625 c 0.46875 1.421875 0.683594 3.027344 0.605469 4.835938 c -0.078125 1.589843 -0.410156 3.097656 -0.957031 4.488281 l -1.769531 0.261719 z m 0 0"/>
        <path d="m 100.480469 90.003906 c -0.167969 0.597656 -0.628907 1.117188 -1.417969 1.234375 l -26.21875 3.996094 l 0.089844 -2.136719 z m 0 0"/>
        <path d="m 88.761719 91.882812 c -0.574219 0.058594 -1.152344 -0.011718 -1.738281 -0.011718 c -0.714844 0 -1.425782 -0.027344 -2.140626 0.011718 c -0.59375 0.03125 -1.179687 0.167969 -1.765624 0.246094 c 0.183593 -0.03125 -0.179688 0.027344 -0.21875 0.039063 c -0.125 0.019531 -0.253907 0.046875 -0.371094 0.085937 c -0.058594 0.019532 -0.117188 0.03125 -0.164063 0.050782 c -0.011719 0.007812 -0.011719 0 -0.019531 0.007812 c -0.039062 0.03125 -0.058594 0.039062 -0.070312 0.039062 c 0 0 0 0 0 -0.007812 c 0 -0.011719 0.019531 -0.03125 0.050781 -0.070312 c -0.226563 0.335937 -0.605469 0.511718 -0.976563 0.441406 c -0.546875 0.792968 -0.871094 1.761718 -0.871094 2.800781 c 0 2.730469 2.207032 4.945313 4.933594 4.945313 c 2.726563 0 4.9375 -2.214844 4.9375 -4.945313 c 0.007813 -1.429687 -0.609375 -2.722656 -1.585937 -3.632813 z m 0 0"/>
        <path d="m 85.421875 100.472656 c 2.617187 0 4.738281 -2.128906 4.738281 -4.75 c 0 -2.625 -2.121094 -4.75 -4.738281 -4.75 s -4.738281 2.125 -4.738281 4.75 c 0 2.621094 2.121094 4.75 4.738281 4.75 z m 0 0"/>
        <path d="m 85.421875 98.445312 c 1.5 0 2.714844 -1.21875 2.714844 -2.722656 s -1.214844 -2.722656 -2.714844 -2.722656 s -2.71875 1.21875 -2.71875 2.722656 s 1.21875 2.722656 2.71875 2.722656 z m 0 0"/>
        <path d="m 61.980469 79.59375 l 0.332031 -5.140625 c 0.128906 -1.957031 3 -1.957031 3.125 0 l 0.324219 5.132813 h -3.78125 z m 0 0"/>
        <path d="m 63.875 79.398438 c -6.28125 0.195312 -10.882812 4.0625 -10.550781 11.074218 c 0.292969 6.113282 4.71875 11.066406 10.550781 11.078125 c 5.824219 -0.011719 10.261719 -4.964843 10.554688 -11.078125 c 0.332031 -7.011718 -4.269532 -10.878906 -10.554688 -11.074218 z m 0 0"/>
        <path d="m 71.574219 88.132812 c -0.371094 -2.9375 -7.628907 -2.742187 -7.628907 -2.742187 s -7.261718 -0.183594 -7.632812 2.742187 c 0 0 -0.195312 1.214844 0.332031 1.703126 c 0.449219 0.414062 1.660157 -0.066407 1.757813 -0.097657 c 0 0 2.484375 -0.617187 5.542968 -0.558593 c 3.058594 -0.058594 5.539063 0.558593 5.539063 0.558593 c 0.097656 0.019531 1.308594 0.511719 1.757813 0.097657 c 0.527343 -0.488282 0.332031 -1.703126 0.332031 -1.703126 z m 0 0"/>
    </g>
    <path d="m 54.503906 84.625 l -25.707031 2.285156 c -2.050781 0.183594 -2.148437 3.152344 -0.105469 3.464844 l 26.214844 3.996094 z m 0 0" fill="#f6f5f9"/>
    <path d="m 54.503906 84.625 l -1.707031 0.160156 c -0.46875 1.417969 -0.683594 3.023438 -0.605469 4.835938 c 0.078125 1.585937 0.410156 3.09375 0.957032 4.484375 l 1.765624 0.265625 z m 0 0" fill="#a0b6d6"/>
    <path d="m 27.273438 89.140625 c 0.167968 0.597656 0.625 1.117187 1.417968 1.234375 l 26.214844 3.996094 l -0.085938 -2.132813 z m 0 0" fill="#a0b6d6"/>
    <path d="m 43.199219 91.121094 c -1.132813 -0.160156 -2.296875 -0.089844 -3.429688 -0.207032 c -0.164062 -0.019531 -0.320312 -0.078124 -0.457031 -0.15625 c -1.164062 0.898438 -1.917969 2.308594 -1.917969 3.90625 c 0 2.730469 2.210938 4.945313 4.9375 4.945313 c 2.722657 0 4.933594 -2.214844 4.933594 -4.945313 c 0 -1.136718 -0.390625 -2.183593 -1.027344 -3.015624 c -1.035156 -0.070313 -2.011719 -0.390626 -3.039062 -0.527344 z m 0 0" fill="#a0b6d6"/>
    <path d="m 42.332031 99.609375 c 2.617188 0 4.738281 -2.125 4.738281 -4.75 c 0 -2.621094 -2.121093 -4.75 -4.738281 -4.75 c -2.617187 0 -4.742187 2.128906 -4.742187 4.75 c 0 2.625 2.125 4.75 4.742187 4.75 z m 0 0" fill="#f6f5f9"/>
    <path d="m 42.332031 97.582031 c 1.5 0 2.714844 -1.21875 2.714844 -2.722656 s -1.214844 -2.722656 -2.714844 -2.722656 s -2.71875 1.21875 -2.71875 2.722656 s 1.21875 2.722656 2.71875 2.722656 z m 0 0" fill="#2a4677"/>
    <path d="m 73.246094 84.625 l 25.707031 2.285156 c 2.054687 0.183594 2.152344 3.152344 0.109375 3.464844 l -26.21875 3.996094 z m 0 0" fill="#f6f5f9"/>
    <path d="m 73.246094 84.625 l 1.710937 0.160156 c 0.46875 1.417969 0.683594 3.023438 0.605469 4.835938 c -0.078125 1.585937 -0.410156 3.09375 -0.957031 4.484375 l -1.769531 0.265625 z m 0 0" fill="#a0b6d6"/>
    <path d="m 100.480469 89.140625 c -0.167969 0.597656 -0.628907 1.117187 -1.417969 1.234375 l -26.21875 3.996094 l 0.089844 -2.132813 z m 0 0" fill="#a0b6d6"/>
    <path d="m 88.761719 91.019531 c -0.574219 0.0625 -1.152344 -0.007812 -1.738281 -0.007812 c -0.714844 0 -1.425782 -0.03125 -2.140626 0.007812 c -0.59375 0.03125 -1.179687 0.167969 -1.765624 0.246094 c 0.183593 -0.027344 -0.179688 0.03125 -0.21875 0.039063 c -0.125 0.019531 -0.253907 0.050781 -0.371094 0.089843 c -0.058594 0.019531 -0.117188 0.027344 -0.164063 0.046875 c -0.011719 0.011719 -0.011719 0 -0.019531 0.011719 c -0.039062 0.027344 -0.058594 0.039063 -0.070312 0.039063 c 0 0 0 0 0 -0.011719 c 0 -0.007813 0.019531 -0.027344 0.050781 -0.066407 c -0.226563 0.332032 -0.605469 0.507813 -0.976563 0.441407 c -0.546875 0.792969 -0.871094 1.761719 -0.871094 2.800781 c 0 2.730469 2.207032 4.945312 4.933594 4.945312 c 2.726563 0 4.9375 -2.214843 4.9375 -4.945312 c 0.007813 -1.429688 -0.609375 -2.722656 -1.585937 -3.636719 z m 0 0" fill="#a0b6d6"/>
    <path d="m 85.421875 99.609375 c 2.617187 0 4.738281 -2.125 4.738281 -4.75 c 0 -2.621094 -2.121094 -4.75 -4.738281 -4.75 s -4.738281 2.128906 -4.738281 4.75 c 0 2.625 2.121094 4.75 4.738281 4.75 z m 0 0" fill="#f6f5f9"/>
    <path d="m 85.421875 97.582031 c 1.5 0 2.714844 -1.21875 2.714844 -2.722656 s -1.214844 -2.722656 -2.714844 -2.722656 s -2.71875 1.21875 -2.71875 2.722656 s 1.21875 2.722656 2.71875 2.722656 z m 0 0" fill="#2a4677"/>
    <path d="m 61.980469 78.734375 l 0.332031 -5.144531 c 0.128906 -1.957032 3 -1.957032 3.125 0 l 0.324219 5.132812 h -3.78125 z m 0 0" fill="url(#g)"/>
    <path d="m 63.875 78.535156 c -6.28125 0.199219 -10.882812 4.066406 -10.550781 11.078125 c 0.292969 6.109375 4.71875 11.066407 10.550781 11.074219 c 5.824219 -0.007812 10.261719 -4.964844 10.554688 -11.074219 c 0.332031 -7.011719 -4.269532 -10.878906 -10.554688 -11.078125 z m 0 0" fill="url(#h)"/>
    <path d="m 71.574219 87.273438 c -0.371094 -2.941407 -7.628907 -2.742188 -7.628907 -2.742188 s -7.261718 -0.1875 -7.632812 2.742188 c 0 0 -0.195312 1.210937 0.332031 1.703124 c 0.449219 0.410157 1.660157 -0.070312 1.757813 -0.097656 c 0 0 2.484375 -0.617187 5.542968 -0.558594 c 3.058594 -0.058593 5.539063 0.558594 5.539063 0.558594 c 0.097656 0.019532 1.308594 0.507813 1.757813 0.097656 c 0.527343 -0.492187 0.332031 -1.703124 0.332031 -1.703124 z m 0 0" fill="url(#i)"/>
    <path d="m 20.433594 104.808594 v -42.976563 h -2.109375 v 52.664063 z m 0 0" fill="#c0bfbc"/>
    <path d="m 109.429688 61.832031 v 52.664063 l -2.109376 -9.726563 v -42.9375 z m 0 0" fill="#c0bfbc"/>
    <path d="m 11.914062 51.085938 v 64.261718 h 6.398438 v -53.695312 h 91.105469 v 53.683594 h 6.402343 v -64.257813 c -17.53125 0 -35.050781 -7.167969 -52.578124 -7.167969 c -17.101563 0.007813 -34.210938 7.175782 -51.328126 7.175782 z m 0 0" fill="#f6f5f4"/>
    <path d="m 109.429688 61.632812 h -91.105469 v 2.558594 h 91.105469 z m 0 0" fill="#deddda"/>
    <path d="m 115.007812 45.105469 l -49.480468 -15.648438 c -1.074219 -0.34375 -2.226563 -0.34375 -3.300782 0 l -49.472656 15.648438 c -0.3125 0.097656 -0.558594 0.351562 -0.625 0.675781 l -3.089844 12.867188 l 54.210938 -16.304688 c 0.402344 -0.117188 0.832031 -0.117188 1.230469 0 l 54.210937 16.304688 v -0.039063 l -3.066406 -12.828125 c -0.070312 -0.324219 -0.304688 -0.578125 -0.617188 -0.675781 z m 0 0" fill="url(#j)"/>
    <path d="m 118.703125 60.292969 l -53.175781 -16.824219 c -1.074219 -0.34375 -2.226563 -0.34375 -3.300782 0 l -53.1875 16.824219 v 3.300781 c 0 0.488281 0.46875 0.839844 0.9375 0.695312 l 53.273438 -16.023437 c 0.402344 -0.117187 0.832031 -0.117187 1.230469 0 l 53.273437 16.023437 c 0.46875 0.136719 0.9375 -0.214843 0.9375 -0.707031 v -3.289062 z m 0 0" fill="#4b7acf"/>
    <g mask="url(#k)">
        <g clip-path="url(#l)" transform="matrix(1 0 0 1 -8 -16)">
            <path d="m 123.847656 78.929688 l -50.320312 -15.925782 c -1.074219 -0.339844 -2.226563 -0.339844 -3.300782 0 l -50.3125 15.925782 v 4.316406 l 51.347657 -15.441406 c 0.398437 -0.117188 0.828125 -0.117188 1.230469 0 l 51.355468 15.453124 z m 0 0" fill="#1a5fb4"/>
        </g>
    </g>
    <path d="m 117 56.414062 l -51.472656 -16.285156 c -1.074219 -0.339844 -2.226563 -0.339844 -3.300782 0 l -51.339843 16.238282 c -1.09375 0.34375 -1.835938 1.359374 -1.835938 2.515624 v 2.339844 l 54.210938 -16.304687 c 0.398437 -0.117188 0.828125 -0.117188 1.230469 0 l 54.210937 16.304687 v -2.488281 c 0 -1.054687 -0.6875 -2.003906 -1.703125 -2.320313 z m 0 0" fill="url(#m)"/>
    <path d="m 118.703125 59.3125 l -53.175781 -16.824219 c -1.074219 -0.339843 -2.226563 -0.339843 -3.300782 0 l -53.1875 16.824219 v 4.28125 l 54.210938 -16.304688 c 0.402344 -0.117187 0.832031 -0.117187 1.230469 0 l 54.210937 16.304688 v -4.28125 z m 0 0" fill="#3584e4"/>
</svg>
