<?xml version="1.0" encoding="UTF-8"?>
<svg height="16px" viewBox="0 0 16 16" width="16px" xmlns="http://www.w3.org/2000/svg" xmlns:xlink="http://www.w3.org/1999/xlink">
    <filter id="a" height="100%" width="100%" x="0%" y="0%">
        <feColorMatrix color-interpolation-filters="sRGB" values="0 0 0 0 1 0 0 0 0 1 0 0 0 0 1 0 0 0 1 0"/>
    </filter>
    <mask id="b">
        <g filter="url(#a)">
            <rect fill-opacity="0.12" height="19.2" width="19.2" x="-1.6" y="-1.6"/>
        </g>
    </mask>
    <clipPath id="c">
        <rect height="152" width="192"/>
    </clipPath>
    <g mask="url(#b)">
        <g clip-path="url(#c)" transform="matrix(1 0 0 1 -168 -16)">
            <path d="m 123.847656 78.929688 l -50.320312 -15.925782 c -1.074219 -0.339844 -2.226563 -0.339844 -3.300782 0 l -50.3125 15.925782 v 4.316406 l 51.347657 -15.441406 c 0.398437 -0.117188 0.828125 -0.117188 1.230469 0 l 51.355468 15.453124 z m 0 0" fill="#1a5fb4"/>
        </g>
    </g>
    <path d="m 0.394531 7.3125 c 0 -0.113281 0.078125 -0.210938 0.183594 -0.242188 l 7.25 -2.027343 c 0.042969 -0.011719 0.089844 -0.011719 0.136719 0 l 7.25 2.027343 c 0.105468 0.03125 0.179687 0.128907 0.179687 0.242188 v 6.714844 c 0 0.136718 -0.109375 0.25 -0.25 0.25 h -14.5 c -0.136719 0 -0.25 -0.113282 -0.25 -0.25 z m 0 0"/>
    <path d="m 0.316406 3.953125 c 0.011719 -0.097656 0.082032 -0.175781 0.175782 -0.203125 l 7.332031 -2.203125 c 0.046875 -0.011719 0.097656 -0.011719 0.144531 0 l 7.339844 2.203125 c 0.089844 0.027344 0.15625 0.101562 0.175781 0.195312 l 0.402344 2.199219 c 0.03125 0.183594 -0.140625 0.335938 -0.316407 0.285157 l -7.601562 -2.238282 c -0.046875 -0.015625 -0.097656 -0.015625 -0.144531 0 l -7.492188 2.242188 c -0.175781 0.050781 -0.3437498 -0.09375 -0.3203122 -0.273438 z m 0 0"/>
</svg>
